<svg xmlns="http://www.w3.org/2000/svg" width="86.68" height="22.811" viewBox="0 0 86.68 22.811">
  <path id="Menu-Icon-SVG-0987uk" d="M37.984,20.832c-1-.608-3.329-1.851-3.7-2.785a2.206,2.206,0,0,0-.869-1.243,10.454,10.454,0,0,1-.624-10.571c.5-1.247,1.771-3.425,2.86-3.734.214,0,.214,0,.652-.31A7.218,7.218,0,0,1,41.181.322a1.018,1.018,0,0,0,.934-.31l0-.008A11.189,11.189,0,0,1,49.083,2.19c.624.31,2.272,1.553,2.363,2.177l.437.619a9.454,9.454,0,0,1,1.741,6.845,12.732,12.732,0,0,1-1.4,4.664,6.578,6.578,0,0,1-2.551,2.781c-.218,0-.218,0-.652.62a11.588,11.588,0,0,1-11.039.937ZM67.739,19.6c-.556-.313-2.05-1.557-2.146-2.181-.04,0-.04,0-.437-.62a9.609,9.609,0,0,1-1.771-6.844,11.353,11.353,0,0,1,2.551-6.216c.437-.306,1.12-1.244,1.835-1.553A7.344,7.344,0,0,1,72.807.322c.341,0,.806-.31,1.024-.31l0-.008a10.81,10.81,0,0,1,5.359,1.251c1.024.314,3.389,1.553,3.73,2.8.1.31.1.31.5.62a10.92,10.92,0,0,1,.464,11.818,10.076,10.076,0,0,1-4.417,4.04,12.111,12.111,0,0,1-11.722-.93Zm-61.65.93a7.963,7.963,0,0,1-3.73-2.8c-.064-.31-.064-.31-.5-.929A10.484,10.484,0,0,1,1.067,6.233C1.627,4.97,3.089,2.5,4.487,2.19A7.467,7.467,0,0,1,9.556.327c.31,0,.775-.314,1.025-.314V0a10.9,10.9,0,0,1,5.351,1.251c1.025.314,3.326,1.558,3.7,2.8.059.311.059.311.5.62a10.677,10.677,0,0,1,.437,11.818,10.012,10.012,0,0,1-4.369,4.04,12.665,12.665,0,0,1-10.106,0Z" transform="translate(0.616 0.5)" stroke="rgba(0,0,0,0)" stroke-miterlimit="10" stroke-width="1"/>
</svg>
